<svg width="23" height="22" viewBox="0 0 23 22" fill="none" xmlns="http://www.w3.org/2000/svg">
<path d="M11.4999 20.1666C16.5625 20.1666 20.6666 16.0626 20.6666 11C20.6666 5.93737 16.5625 1.83331 11.4999 1.83331C6.43731 1.83331 2.33325 5.93737 2.33325 11C2.33325 16.0626 6.43731 20.1666 11.4999 20.1666Z" stroke="#8D8D8E" stroke-width="1.5" stroke-linecap="round" stroke-linejoin="round"/>
<path d="M7.84253 13.3008C8.00753 13.5758 8.20919 13.8325 8.43836 14.0617C10.125 15.7483 12.8659 15.7483 14.5617 14.0617C15.2492 13.3742 15.6434 12.5033 15.7717 11.6141" stroke="#8D8D8E" stroke-width="1.5" stroke-linecap="round" stroke-linejoin="round"/>
<path d="M7.22827 10.3858C7.3566 9.48749 7.75078 8.62578 8.43828 7.93828C10.1249 6.25161 12.8658 6.25161 14.5616 7.93828C14.7999 8.17661 14.9924 8.43329 15.1574 8.69913" stroke="#8D8D8E" stroke-width="1.5" stroke-linecap="round" stroke-linejoin="round"/>
<path d="M7.66821 15.7483V13.3008H10.1157" stroke="#8D8D8E" stroke-width="1.5" stroke-linecap="round" stroke-linejoin="round"/>
<path d="M15.3315 6.25165V8.69913H12.884" stroke="#8D8D8E" stroke-width="1.5" stroke-linecap="round" stroke-linejoin="round"/>
</svg>
