<svg width="23" height="22" viewBox="0 0 23 22" fill="none" xmlns="http://www.w3.org/2000/svg">
<path d="M8.44922 13.1357C8.44922 14.3182 9.35672 15.2715 10.4842 15.2715H12.7851C13.7659 15.2715 14.5634 14.4374 14.5634 13.4107C14.5634 12.2924 14.0776 11.8982 13.3534 11.6415L9.65922 10.3582C8.93505 10.1015 8.44922 9.70738 8.44922 8.58904C8.44922 7.56238 9.24672 6.72821 10.2276 6.72821H12.5284C13.6559 6.72821 14.5634 7.68154 14.5634 8.86404" stroke="#8D8D8E" stroke-width="1.5" stroke-linecap="round" stroke-linejoin="round"/>
<path d="M11.5 5.5V16.5" stroke="#8D8D8E" stroke-width="1.5" stroke-linecap="round" stroke-linejoin="round"/>
<path d="M11.4999 20.1666C16.5625 20.1666 20.6666 16.0626 20.6666 11C20.6666 5.93737 16.5625 1.83331 11.4999 1.83331C6.43731 1.83331 2.33325 5.93737 2.33325 11C2.33325 16.0626 6.43731 20.1666 11.4999 20.1666Z" stroke="#8D8D8E" stroke-width="1.5" stroke-linecap="round" stroke-linejoin="round"/>
</svg>
