<svg width="50" height="50" viewBox="0 0 50 50" fill="none" xmlns="http://www.w3.org/2000/svg">
<path d="M35.1255 0.833344H14.8738C6.07717 0.833344 0.833008 6.07751 0.833008 14.8742V35.1017C0.833008 43.9225 6.07717 49.1667 14.8738 49.1667H35.1013C43.898 49.1667 49.1422 43.9225 49.1422 35.1258V14.8742C49.1663 6.07751 43.9222 0.833344 35.1255 0.833344ZM22.4138 37.4458C22.4138 37.6875 22.3655 37.905 22.2688 38.1467C22.0755 38.5817 21.7372 38.9442 21.278 39.1375C21.0605 39.2342 20.8188 39.2825 20.5772 39.2825C20.3355 39.2825 20.118 39.2342 19.8763 39.1375C19.6588 39.0408 19.4655 38.92 19.2963 38.7508L11.9497 31.4042C11.2488 30.7033 11.2488 29.5433 11.9497 28.8425C12.6505 28.1417 13.8105 28.1417 14.5113 28.8425L18.7647 33.0958V12.5542C18.7647 11.5633 19.5863 10.7417 20.5772 10.7417C21.568 10.7417 22.3897 11.5633 22.3897 12.5542V37.4458H22.4138ZM38.0255 21.1817C37.663 21.5442 37.2038 21.7133 36.7447 21.7133C36.2855 21.7133 35.8263 21.5442 35.4638 21.1817L31.2105 16.9283V37.47C31.2105 38.4608 30.3888 39.2825 29.398 39.2825C28.4072 39.2825 27.5855 38.4608 27.5855 37.47V12.5542C27.5855 12.3125 27.6338 12.095 27.7305 11.8533C27.9238 11.4183 28.2622 11.0558 28.7213 10.8625C29.1563 10.6692 29.6638 10.6692 30.0988 10.8625C30.3163 10.9592 30.5097 11.08 30.6788 11.2492L38.0255 18.5958C38.7263 19.3208 38.7263 20.4567 38.0255 21.1817Z" fill="#171719"/>
</svg>
